<mxfile host="app.diagrams.net" agent="Mozilla/5.0 (Windows NT 10.0; Win64; x64) AppleWebKit/537.36 (KHTML, like Gecko) Chrome/135.0.0.0 Safari/537.36" version="26.2.14">
  <diagram name="Page-1" id="miFBjzWg3S2-hVBiEMMd">
    <mxGraphModel dx="1895" dy="958" grid="1" gridSize="10" guides="1" tooltips="1" connect="1" arrows="1" fold="1" page="1" pageScale="1" pageWidth="850" pageHeight="1100" math="0" shadow="0">
      <root>
        <mxCell id="0" />
        <mxCell id="1" parent="0" />
        <mxCell id="9Hdnc33YtW1InYHIeu2q-1" value="Complaint" style="ellipse;whiteSpace=wrap;html=1;" parent="1" vertex="1">
          <mxGeometry x="10" y="10" width="100" height="60" as="geometry" />
        </mxCell>
        <mxCell id="9Hdnc33YtW1InYHIeu2q-2" value="Tenant" style="shape=umlActor;verticalLabelPosition=bottom;verticalAlign=top;html=1;outlineConnect=0;" parent="1" vertex="1">
          <mxGeometry x="45" y="90" width="25" height="50" as="geometry" />
        </mxCell>
        <mxCell id="9Hdnc33YtW1InYHIeu2q-9" style="edgeStyle=orthogonalEdgeStyle;rounded=0;orthogonalLoop=1;jettySize=auto;html=1;entryX=0.011;entryY=0.555;entryDx=0;entryDy=0;entryPerimeter=0;endArrow=none;startFill=0;" parent="1" source="9Hdnc33YtW1InYHIeu2q-3" target="9Hdnc33YtW1InYHIeu2q-8" edge="1">
          <mxGeometry relative="1" as="geometry">
            <mxPoint x="460" y="105" as="targetPoint" />
          </mxGeometry>
        </mxCell>
        <mxCell id="9Hdnc33YtW1InYHIeu2q-3" value="" style="shape=umlBoundary;whiteSpace=wrap;html=1;" parent="1" vertex="1">
          <mxGeometry x="260" y="72.5" width="80" height="65" as="geometry" />
        </mxCell>
        <mxCell id="9Hdnc33YtW1InYHIeu2q-4" value="Tenant Home screen" style="text;html=1;align=center;verticalAlign=middle;resizable=0;points=[];autosize=1;strokeColor=none;fillColor=none;" parent="1" vertex="1">
          <mxGeometry x="240" y="42.5" width="130" height="30" as="geometry" />
        </mxCell>
        <mxCell id="9Hdnc33YtW1InYHIeu2q-5" value="" style="endArrow=none;html=1;rounded=0;entryX=-0.005;entryY=0.502;entryDx=0;entryDy=0;entryPerimeter=0;" parent="1" source="9Hdnc33YtW1InYHIeu2q-6" target="9Hdnc33YtW1InYHIeu2q-3" edge="1">
          <mxGeometry width="50" height="50" relative="1" as="geometry">
            <mxPoint x="80" y="108" as="sourcePoint" />
            <mxPoint x="180" y="110" as="targetPoint" />
          </mxGeometry>
        </mxCell>
        <mxCell id="9Hdnc33YtW1InYHIeu2q-7" value="" style="endArrow=none;html=1;rounded=0;entryX=-0.005;entryY=0.502;entryDx=0;entryDy=0;entryPerimeter=0;" parent="1" target="9Hdnc33YtW1InYHIeu2q-6" edge="1">
          <mxGeometry width="50" height="50" relative="1" as="geometry">
            <mxPoint x="80" y="105" as="sourcePoint" />
            <mxPoint x="200" y="108" as="targetPoint" />
          </mxGeometry>
        </mxCell>
        <mxCell id="9Hdnc33YtW1InYHIeu2q-6" value="&lt;div&gt;Select&lt;/div&gt;&lt;div&gt;&quot;Complaint&quot;&lt;/div&gt;" style="text;html=1;align=center;verticalAlign=middle;resizable=0;points=[];autosize=1;strokeColor=none;fillColor=none;" parent="1" vertex="1">
          <mxGeometry x="135" y="85" width="90" height="40" as="geometry" />
        </mxCell>
        <mxCell id="9Hdnc33YtW1InYHIeu2q-8" value="Display" style="ellipse;shape=umlControl;whiteSpace=wrap;html=1;" parent="1" vertex="1">
          <mxGeometry x="470" y="60" width="70" height="80" as="geometry" />
        </mxCell>
        <mxCell id="9Hdnc33YtW1InYHIeu2q-10" value="" style="shape=umlBoundary;whiteSpace=wrap;html=1;" parent="1" vertex="1">
          <mxGeometry x="260" y="210" width="80" height="65" as="geometry" />
        </mxCell>
        <mxCell id="9Hdnc33YtW1InYHIeu2q-11" value="Tenant Complaint screen" style="text;html=1;align=center;verticalAlign=middle;resizable=0;points=[];autosize=1;strokeColor=none;fillColor=none;" parent="1" vertex="1">
          <mxGeometry x="225" y="180" width="160" height="30" as="geometry" />
        </mxCell>
        <mxCell id="9Hdnc33YtW1InYHIeu2q-12" style="edgeStyle=orthogonalEdgeStyle;rounded=0;orthogonalLoop=1;jettySize=auto;html=1;entryX=0.995;entryY=0.578;entryDx=0;entryDy=0;entryPerimeter=0;endArrow=none;startFill=0;" parent="1" source="9Hdnc33YtW1InYHIeu2q-8" target="9Hdnc33YtW1InYHIeu2q-10" edge="1">
          <mxGeometry relative="1" as="geometry">
            <Array as="points">
              <mxPoint x="505" y="248" />
            </Array>
          </mxGeometry>
        </mxCell>
        <mxCell id="9Hdnc33YtW1InYHIeu2q-13" value="" style="endArrow=none;html=1;rounded=0;" parent="1" source="9Hdnc33YtW1InYHIeu2q-14" edge="1">
          <mxGeometry width="50" height="50" relative="1" as="geometry">
            <mxPoint x="80" y="110" as="sourcePoint" />
            <mxPoint x="260" y="240" as="targetPoint" />
          </mxGeometry>
        </mxCell>
        <mxCell id="9Hdnc33YtW1InYHIeu2q-15" value="" style="endArrow=none;html=1;rounded=0;" parent="1" target="9Hdnc33YtW1InYHIeu2q-14" edge="1">
          <mxGeometry width="50" height="50" relative="1" as="geometry">
            <mxPoint x="80" y="110" as="sourcePoint" />
            <mxPoint x="260" y="240" as="targetPoint" />
          </mxGeometry>
        </mxCell>
        <mxCell id="9Hdnc33YtW1InYHIeu2q-14" value="Fill out form" style="text;html=1;align=center;verticalAlign=middle;resizable=0;points=[];autosize=1;strokeColor=none;fillColor=none;rotation=40;" parent="1" vertex="1">
          <mxGeometry x="130" y="160" width="90" height="30" as="geometry" />
        </mxCell>
        <mxCell id="9Hdnc33YtW1InYHIeu2q-16" value="Data check" style="ellipse;shape=umlControl;whiteSpace=wrap;html=1;" parent="1" vertex="1">
          <mxGeometry x="470" y="290" width="70" height="80" as="geometry" />
        </mxCell>
        <mxCell id="9Hdnc33YtW1InYHIeu2q-17" style="edgeStyle=orthogonalEdgeStyle;rounded=0;orthogonalLoop=1;jettySize=auto;html=1;entryX=0.011;entryY=0.66;entryDx=0;entryDy=0;entryPerimeter=0;endArrow=none;startFill=0;" parent="1" source="9Hdnc33YtW1InYHIeu2q-10" target="9Hdnc33YtW1InYHIeu2q-16" edge="1">
          <mxGeometry relative="1" as="geometry">
            <Array as="points">
              <mxPoint x="300" y="343" />
            </Array>
          </mxGeometry>
        </mxCell>
        <mxCell id="9Hdnc33YtW1InYHIeu2q-18" value="Complaint&amp;nbsp;&lt;div&gt;List&lt;/div&gt;" style="ellipse;shape=umlEntity;whiteSpace=wrap;html=1;" parent="1" vertex="1">
          <mxGeometry x="680" y="45" width="80" height="80" as="geometry" />
        </mxCell>
        <mxCell id="9Hdnc33YtW1InYHIeu2q-22" style="edgeStyle=orthogonalEdgeStyle;rounded=0;orthogonalLoop=1;jettySize=auto;html=1;entryX=0.5;entryY=1;entryDx=0;entryDy=0;endArrow=none;startFill=0;" parent="1" source="9Hdnc33YtW1InYHIeu2q-20" target="9Hdnc33YtW1InYHIeu2q-18" edge="1">
          <mxGeometry relative="1" as="geometry">
            <Array as="points">
              <mxPoint x="720" y="240" />
              <mxPoint x="720" y="240" />
            </Array>
          </mxGeometry>
        </mxCell>
        <mxCell id="9Hdnc33YtW1InYHIeu2q-20" value="Update" style="ellipse;shape=umlControl;whiteSpace=wrap;html=1;" parent="1" vertex="1">
          <mxGeometry x="680" y="290" width="70" height="80" as="geometry" />
        </mxCell>
        <mxCell id="9Hdnc33YtW1InYHIeu2q-21" style="edgeStyle=orthogonalEdgeStyle;rounded=0;orthogonalLoop=1;jettySize=auto;html=1;entryX=0.006;entryY=0.5;entryDx=0;entryDy=0;entryPerimeter=0;endArrow=none;startFill=0;" parent="1" source="9Hdnc33YtW1InYHIeu2q-16" target="9Hdnc33YtW1InYHIeu2q-20" edge="1">
          <mxGeometry relative="1" as="geometry" />
        </mxCell>
        <mxCell id="9Hdnc33YtW1InYHIeu2q-23" value="Correct" style="text;html=1;align=center;verticalAlign=middle;resizable=0;points=[];autosize=1;strokeColor=none;fillColor=none;" parent="1" vertex="1">
          <mxGeometry x="575" y="300" width="60" height="30" as="geometry" />
        </mxCell>
        <mxCell id="9Hdnc33YtW1InYHIeu2q-26" value="Error message" style="ellipse;shape=umlControl;whiteSpace=wrap;html=1;fillColor=none;strokeColor=#b85450;" parent="1" vertex="1">
          <mxGeometry x="390" y="390" width="70" height="80" as="geometry" />
        </mxCell>
        <mxCell id="9Hdnc33YtW1InYHIeu2q-27" style="edgeStyle=orthogonalEdgeStyle;rounded=0;orthogonalLoop=1;jettySize=auto;html=1;entryX=1.006;entryY=0.69;entryDx=0;entryDy=0;entryPerimeter=0;fillColor=#f8cecc;strokeColor=#b85450;endArrow=none;startFill=0;" parent="1" source="9Hdnc33YtW1InYHIeu2q-16" target="9Hdnc33YtW1InYHIeu2q-26" edge="1">
          <mxGeometry relative="1" as="geometry">
            <Array as="points">
              <mxPoint x="510" y="445" />
            </Array>
          </mxGeometry>
        </mxCell>
        <mxCell id="9Hdnc33YtW1InYHIeu2q-28" value="Wrong" style="text;html=1;align=center;verticalAlign=middle;resizable=0;points=[];autosize=1;strokeColor=#b85450;fillColor=none;" parent="1" vertex="1">
          <mxGeometry x="510" y="390" width="60" height="30" as="geometry" />
        </mxCell>
        <mxCell id="9Hdnc33YtW1InYHIeu2q-32" value="Send&lt;div&gt;Notification&lt;/div&gt;" style="ellipse;shape=umlControl;whiteSpace=wrap;html=1;" parent="1" vertex="1">
          <mxGeometry x="590" y="505" width="80" height="80" as="geometry" />
        </mxCell>
        <mxCell id="9Hdnc33YtW1InYHIeu2q-34" value="Manager" style="shape=umlActor;verticalLabelPosition=bottom;verticalAlign=top;html=1;outlineConnect=0;" parent="1" vertex="1">
          <mxGeometry x="47.5" y="535" width="25" height="50" as="geometry" />
        </mxCell>
        <mxCell id="9Hdnc33YtW1InYHIeu2q-38" style="edgeStyle=orthogonalEdgeStyle;rounded=0;orthogonalLoop=1;jettySize=auto;html=1;entryX=1.022;entryY=0.67;entryDx=0;entryDy=0;entryPerimeter=0;endArrow=none;startFill=0;" parent="1" source="9Hdnc33YtW1InYHIeu2q-20" target="9Hdnc33YtW1InYHIeu2q-32" edge="1">
          <mxGeometry relative="1" as="geometry">
            <Array as="points">
              <mxPoint x="720" y="559" />
            </Array>
          </mxGeometry>
        </mxCell>
        <mxCell id="9Hdnc33YtW1InYHIeu2q-39" value="" style="shape=umlBoundary;whiteSpace=wrap;html=1;" parent="1" vertex="1">
          <mxGeometry x="260" y="532.5" width="80" height="65" as="geometry" />
        </mxCell>
        <mxCell id="9Hdnc33YtW1InYHIeu2q-40" value="" style="endArrow=none;html=1;rounded=0;entryX=0.108;entryY=0.512;entryDx=0;entryDy=0;entryPerimeter=0;" parent="1" source="9Hdnc33YtW1InYHIeu2q-42" target="9Hdnc33YtW1InYHIeu2q-39" edge="1">
          <mxGeometry width="50" height="50" relative="1" as="geometry">
            <mxPoint x="80" y="563" as="sourcePoint" />
            <mxPoint x="261" y="563" as="targetPoint" />
          </mxGeometry>
        </mxCell>
        <mxCell id="9Hdnc33YtW1InYHIeu2q-41" value="Manager Home screen" style="text;html=1;align=center;verticalAlign=middle;resizable=0;points=[];autosize=1;strokeColor=none;fillColor=none;" parent="1" vertex="1">
          <mxGeometry x="230" y="505" width="150" height="30" as="geometry" />
        </mxCell>
        <mxCell id="9Hdnc33YtW1InYHIeu2q-43" value="" style="endArrow=none;html=1;rounded=0;entryX=0.108;entryY=0.512;entryDx=0;entryDy=0;entryPerimeter=0;" parent="1" target="9Hdnc33YtW1InYHIeu2q-42" edge="1">
          <mxGeometry width="50" height="50" relative="1" as="geometry">
            <mxPoint x="80" y="565" as="sourcePoint" />
            <mxPoint x="269" y="563" as="targetPoint" />
          </mxGeometry>
        </mxCell>
        <mxCell id="9Hdnc33YtW1InYHIeu2q-42" value="Select&lt;br&gt;&lt;div&gt;&quot;Notifications&quot;&lt;/div&gt;" style="text;html=1;align=center;verticalAlign=middle;resizable=0;points=[];autosize=1;strokeColor=none;fillColor=none;" parent="1" vertex="1">
          <mxGeometry x="125" y="545" width="100" height="40" as="geometry" />
        </mxCell>
        <mxCell id="9Hdnc33YtW1InYHIeu2q-45" value="Display" style="ellipse;shape=umlControl;whiteSpace=wrap;html=1;" parent="1" vertex="1">
          <mxGeometry x="460" y="615" width="70" height="80" as="geometry" />
        </mxCell>
        <mxCell id="9Hdnc33YtW1InYHIeu2q-47" value="" style="shape=umlBoundary;whiteSpace=wrap;html=1;" parent="1" vertex="1">
          <mxGeometry x="265" y="650" width="80" height="65" as="geometry" />
        </mxCell>
        <mxCell id="9Hdnc33YtW1InYHIeu2q-49" style="edgeStyle=orthogonalEdgeStyle;rounded=0;orthogonalLoop=1;jettySize=auto;html=1;entryX=1.002;entryY=0.49;entryDx=0;entryDy=0;entryPerimeter=0;endArrow=none;startFill=0;" parent="1" source="9Hdnc33YtW1InYHIeu2q-45" target="9Hdnc33YtW1InYHIeu2q-47" edge="1">
          <mxGeometry relative="1" as="geometry">
            <Array as="points">
              <mxPoint x="460" y="682" />
            </Array>
          </mxGeometry>
        </mxCell>
        <mxCell id="9Hdnc33YtW1InYHIeu2q-50" value="Manager Notification Screen" style="text;html=1;align=center;verticalAlign=middle;resizable=0;points=[];autosize=1;strokeColor=none;fillColor=none;" parent="1" vertex="1">
          <mxGeometry x="220" y="620" width="170" height="30" as="geometry" />
        </mxCell>
        <mxCell id="9Hdnc33YtW1InYHIeu2q-51" value="" style="endArrow=none;html=1;rounded=0;entryX=0.026;entryY=0.534;entryDx=0;entryDy=0;entryPerimeter=0;" parent="1" source="9Hdnc33YtW1InYHIeu2q-52" target="9Hdnc33YtW1InYHIeu2q-47" edge="1">
          <mxGeometry width="50" height="50" relative="1" as="geometry">
            <mxPoint x="80" y="570" as="sourcePoint" />
            <mxPoint x="263" y="686" as="targetPoint" />
          </mxGeometry>
        </mxCell>
        <mxCell id="9Hdnc33YtW1InYHIeu2q-53" value="" style="endArrow=none;html=1;rounded=0;entryX=0.026;entryY=0.534;entryDx=0;entryDy=0;entryPerimeter=0;" parent="1" target="9Hdnc33YtW1InYHIeu2q-52" edge="1">
          <mxGeometry width="50" height="50" relative="1" as="geometry">
            <mxPoint x="80" y="570" as="sourcePoint" />
            <mxPoint x="267" y="685" as="targetPoint" />
          </mxGeometry>
        </mxCell>
        <mxCell id="9Hdnc33YtW1InYHIeu2q-52" value="Select&amp;nbsp;&lt;div&gt;complaint&lt;/div&gt;" style="text;html=1;align=center;verticalAlign=middle;resizable=0;points=[];autosize=1;strokeColor=none;fillColor=none;rotation=30;" parent="1" vertex="1">
          <mxGeometry x="150" y="615" width="70" height="40" as="geometry" />
        </mxCell>
        <mxCell id="9Hdnc33YtW1InYHIeu2q-61" style="edgeStyle=orthogonalEdgeStyle;rounded=0;orthogonalLoop=1;jettySize=auto;html=1;entryX=1;entryY=0.5;entryDx=0;entryDy=0;exitX=0.532;exitY=0.159;exitDx=0;exitDy=0;exitPerimeter=0;endArrow=none;startFill=0;" parent="1" source="9Hdnc33YtW1InYHIeu2q-54" target="9Hdnc33YtW1InYHIeu2q-18" edge="1">
          <mxGeometry relative="1" as="geometry">
            <Array as="points">
              <mxPoint x="465" y="733" />
              <mxPoint x="465" y="700" />
              <mxPoint x="780" y="700" />
              <mxPoint x="780" y="85" />
            </Array>
          </mxGeometry>
        </mxCell>
        <mxCell id="9Hdnc33YtW1InYHIeu2q-54" value="Load" style="ellipse;shape=umlControl;whiteSpace=wrap;html=1;" parent="1" vertex="1">
          <mxGeometry x="425" y="720" width="80" height="80" as="geometry" />
        </mxCell>
        <mxCell id="9Hdnc33YtW1InYHIeu2q-55" style="edgeStyle=orthogonalEdgeStyle;rounded=0;orthogonalLoop=1;jettySize=auto;html=1;entryX=0.002;entryY=0.559;entryDx=0;entryDy=0;entryPerimeter=0;endArrow=none;startFill=0;" parent="1" source="9Hdnc33YtW1InYHIeu2q-47" target="9Hdnc33YtW1InYHIeu2q-54" edge="1">
          <mxGeometry relative="1" as="geometry">
            <Array as="points">
              <mxPoint x="310" y="765" />
            </Array>
          </mxGeometry>
        </mxCell>
        <mxCell id="9Hdnc33YtW1InYHIeu2q-56" value="Display complaint details" style="ellipse;shape=umlControl;whiteSpace=wrap;html=1;" parent="1" vertex="1">
          <mxGeometry x="600" y="720" width="70" height="80" as="geometry" />
        </mxCell>
        <mxCell id="9Hdnc33YtW1InYHIeu2q-57" style="edgeStyle=orthogonalEdgeStyle;rounded=0;orthogonalLoop=1;jettySize=auto;html=1;entryX=-0.024;entryY=0.512;entryDx=0;entryDy=0;entryPerimeter=0;endArrow=none;startFill=0;" parent="1" source="9Hdnc33YtW1InYHIeu2q-54" target="9Hdnc33YtW1InYHIeu2q-56" edge="1">
          <mxGeometry relative="1" as="geometry" />
        </mxCell>
        <mxCell id="9Hdnc33YtW1InYHIeu2q-62" value="Send Notification" style="ellipse;shape=umlControl;whiteSpace=wrap;html=1;" parent="1" vertex="1">
          <mxGeometry x="495" y="880" width="80" height="80" as="geometry" />
        </mxCell>
        <mxCell id="VWPVS1ChB5AA7lZJlyar-4" style="edgeStyle=orthogonalEdgeStyle;rounded=0;orthogonalLoop=1;jettySize=auto;html=1;endArrow=none;startFill=0;" parent="1" source="9Hdnc33YtW1InYHIeu2q-67" target="9Hdnc33YtW1InYHIeu2q-69" edge="1">
          <mxGeometry relative="1" as="geometry" />
        </mxCell>
        <mxCell id="9Hdnc33YtW1InYHIeu2q-67" value="Select answer" style="ellipse;shape=umlControl;whiteSpace=wrap;html=1;" parent="1" vertex="1">
          <mxGeometry x="290" y="880" width="70" height="80" as="geometry" />
        </mxCell>
        <mxCell id="9Hdnc33YtW1InYHIeu2q-69" value="Display response form" style="ellipse;shape=umlControl;whiteSpace=wrap;html=1;" parent="1" vertex="1">
          <mxGeometry x="65" y="880" width="70" height="80" as="geometry" />
        </mxCell>
        <mxCell id="kHlMtFAHh0BdNlB6bbL8-3" style="edgeStyle=orthogonalEdgeStyle;rounded=0;orthogonalLoop=1;jettySize=auto;html=1;entryX=0;entryY=0.5;entryDx=0;entryDy=0;endArrow=none;startFill=0;" parent="1" source="kHlMtFAHh0BdNlB6bbL8-1" target="9Hdnc33YtW1InYHIeu2q-18" edge="1">
          <mxGeometry relative="1" as="geometry">
            <Array as="points">
              <mxPoint x="570" y="558" />
              <mxPoint x="570" y="85" />
            </Array>
          </mxGeometry>
        </mxCell>
        <mxCell id="kHlMtFAHh0BdNlB6bbL8-1" value="Load" style="ellipse;shape=umlControl;whiteSpace=wrap;html=1;" parent="1" vertex="1">
          <mxGeometry x="460" y="517.5" width="70" height="80" as="geometry" />
        </mxCell>
        <mxCell id="kHlMtFAHh0BdNlB6bbL8-2" style="edgeStyle=orthogonalEdgeStyle;rounded=0;orthogonalLoop=1;jettySize=auto;html=1;entryX=-0.01;entryY=0.577;entryDx=0;entryDy=0;entryPerimeter=0;endArrow=none;startFill=0;" parent="1" source="9Hdnc33YtW1InYHIeu2q-39" target="kHlMtFAHh0BdNlB6bbL8-1" edge="1">
          <mxGeometry relative="1" as="geometry" />
        </mxCell>
        <mxCell id="kHlMtFAHh0BdNlB6bbL8-4" style="edgeStyle=orthogonalEdgeStyle;rounded=0;orthogonalLoop=1;jettySize=auto;html=1;entryX=0.524;entryY=0.125;entryDx=0;entryDy=0;entryPerimeter=0;endArrow=none;startFill=0;" parent="1" source="kHlMtFAHh0BdNlB6bbL8-1" target="9Hdnc33YtW1InYHIeu2q-45" edge="1">
          <mxGeometry relative="1" as="geometry" />
        </mxCell>
        <mxCell id="VWPVS1ChB5AA7lZJlyar-1" style="edgeStyle=orthogonalEdgeStyle;rounded=0;orthogonalLoop=1;jettySize=auto;html=1;entryX=0.986;entryY=0.563;entryDx=0;entryDy=0;entryPerimeter=0;endArrow=none;startFill=0;" parent="1" source="9Hdnc33YtW1InYHIeu2q-56" target="9Hdnc33YtW1InYHIeu2q-62" edge="1">
          <mxGeometry relative="1" as="geometry">
            <Array as="points">
              <mxPoint x="635" y="925" />
            </Array>
          </mxGeometry>
        </mxCell>
        <mxCell id="VWPVS1ChB5AA7lZJlyar-2" style="edgeStyle=orthogonalEdgeStyle;rounded=0;orthogonalLoop=1;jettySize=auto;html=1;entryX=1.002;entryY=0.491;entryDx=0;entryDy=0;entryPerimeter=0;endArrow=none;startFill=0;" parent="1" source="9Hdnc33YtW1InYHIeu2q-62" target="9Hdnc33YtW1InYHIeu2q-67" edge="1">
          <mxGeometry relative="1" as="geometry" />
        </mxCell>
        <mxCell id="VWPVS1ChB5AA7lZJlyar-3" value="Yes" style="text;html=1;align=center;verticalAlign=middle;resizable=0;points=[];autosize=1;strokeColor=none;fillColor=none;" parent="1" vertex="1">
          <mxGeometry x="240" y="890" width="40" height="30" as="geometry" />
        </mxCell>
      </root>
    </mxGraphModel>
  </diagram>
</mxfile>
